<svg width="24" height="24" viewBox="0 0 24 24" fill="none" xmlns="http://www.w3.org/2000/svg">
  <!-- Pixel art sparkles for Team Vibes -->
  <!-- Large sparkle (center) -->
  <rect x="12" y="7" width="2" height="2" fill="#F43F5E"/>
  <rect x="10" y="9" width="2" height="2" fill="#FB7185"/>
  <rect x="12" y="9" width="2" height="2" fill="#FECDD3"/>
  <rect x="14" y="9" width="2" height="2" fill="#FB7185"/>
  <rect x="12" y="11" width="2" height="2" fill="#F43F5E"/>

  <!-- Small sparkle (top left) -->
  <rect x="7" y="6" width="2" height="2" fill="#FDE047"/>
  <rect x="6" y="7" width="2" height="2" fill="#FEF08A"/>
  <rect x="8" y="7" width="2" height="2" fill="#FEF08A"/>
  <rect x="7" y="8" width="2" height="2" fill="#FDE047"/>

  <!-- Small sparkle (bottom right) -->
  <rect x="16" y="14" width="2" height="2" fill="#60A5FA"/>
  <rect x="15" y="15" width="2" height="2" fill="#93C5FD"/>
  <rect x="17" y="15" width="2" height="2" fill="#93C5FD"/>
  <rect x="16" y="16" width="2" height="2" fill="#60A5FA"/>

  <!-- Tiny sparkle (top right) -->
  <rect x="17" y="8" width="2" height="2" fill="#A78BFA"/>

  <!-- Tiny sparkle (bottom left) -->
  <rect x="8" y="15" width="2" height="2" fill="#FB923C"/>
</svg>
