<svg width="24" height="24" viewBox="0 0 24 24" fill="none" xmlns="http://www.w3.org/2000/svg">
  <!-- Pixel art heart for Wellness Coach -->
  <!-- Top of heart (left side) -->
  <rect x="7" y="7" width="2" height="2" fill="#10B981"/>
  <rect x="9" y="7" width="2" height="2" fill="#10B981"/>

  <!-- Top of heart (right side) -->
  <rect x="13" y="7" width="2" height="2" fill="#10B981"/>
  <rect x="15" y="7" width="2" height="2" fill="#10B981"/>

  <!-- Upper middle -->
  <rect x="7" y="9" width="2" height="2" fill="#10B981"/>
  <rect x="9" y="9" width="2" height="2" fill="#34D399"/>
  <rect x="11" y="9" width="2" height="2" fill="#10B981"/>
  <rect x="13" y="9" width="2" height="2" fill="#34D399"/>
  <rect x="15" y="9" width="2" height="2" fill="#10B981"/>

  <!-- Middle -->
  <rect x="7" y="11" width="2" height="2" fill="#10B981"/>
  <rect x="9" y="11" width="2" height="2" fill="#34D399"/>
  <rect x="11" y="11" width="2" height="2" fill="#6EE7B7"/>
  <rect x="13" y="11" width="2" height="2" fill="#34D399"/>
  <rect x="15" y="11" width="2" height="2" fill="#10B981"/>

  <!-- Lower middle -->
  <rect x="9" y="13" width="2" height="2" fill="#10B981"/>
  <rect x="11" y="13" width="2" height="2" fill="#34D399"/>
  <rect x="13" y="13" width="2" height="2" fill="#10B981"/>

  <!-- Bottom -->
  <rect x="11" y="15" width="2" height="2" fill="#10B981"/>
</svg>
